<svg xmlns="http://www.w3.org/2000/svg" viewBox="0 0 100 100">
  <rect width="100" height="100" fill="#ffffff" rx="8"/>
  <rect x="4" y="4" width="92" height="92" fill="#1e293b" rx="6"/>

  <!-- Number 7 -->
  <text x="50" y="58" font-family="Arial, sans-serif" font-size="48" font-weight="bold" fill="#ffffff" text-anchor="middle">7</text>

  <!-- Spade symbol -->
  <path d="M50 70 L45 78 L50 77 L55 78 Z M50 68 C48 73 43 76 43 76 C43 74 45 72 47 71 C45 71 43 72 43 75 C43 78 46 80 50 80 C54 80 57 78 57 75 C57 72 55 71 53 71 C55 72 57 74 57 76 C57 76 52 73 50 68 Z" fill="#ffffff"/>
</svg>
